<svg width="15" height="15" viewBox="0 0 15 15" fill="none" xmlns="http://www.w3.org/2000/svg">
<g clip-path="url(#clip0_228_152)">
<path d="M0.401159 0.0297069C0.272253 0.0677929 0.122839 0.196699 0.0583855 0.322676C-0.000208292 0.436934 -0.000208293 0.489668 0.00565108 6.20842L0.0144401 11.977L0.10526 12.0912C0.152135 12.1528 0.251745 12.2319 0.322057 12.267L0.450964 12.3344H3.97831C7.80741 12.3344 7.62284 12.3432 7.69901 12.1733C7.76346 12.0356 7.74296 11.9272 7.63456 11.8188L7.53495 11.7192H4.07499H0.615026V6.1674V0.615644H6.15214H11.6892V6.1674V11.7192H10.8367H9.98417L9.88456 11.8188C9.77616 11.9272 9.75565 12.0356 9.8201 12.1733C9.89042 12.3285 9.93729 12.3344 10.9334 12.3344C11.8299 12.3344 11.8562 12.3315 11.9822 12.2699C12.0525 12.2319 12.1521 12.1528 12.199 12.0912L12.2898 11.977L12.2957 6.20256L12.3045 0.425215L12.2371 0.308027C12.2019 0.246504 12.114 0.152754 12.0467 0.102949L11.9178 0.0150585L6.20194 0.00919912C3.05546 0.00626943 0.445104 0.0150585 0.401159 0.0297069Z" fill="black"/>
<path d="M13.8545 0.0411749C13.8135 0.0675421 13.6172 0.337073 13.3945 0.682776C13.0547 1.21012 13.0078 1.29801 13.0078 1.40641C13.0078 1.6818 13.3213 1.80485 13.5176 1.6027C13.5674 1.55289 13.6318 1.47672 13.6582 1.43571C13.7051 1.36832 13.708 1.66715 13.708 6.25504C13.708 10.8429 13.7051 11.1418 13.6582 11.0744C13.6318 11.0334 13.5674 10.9572 13.5176 10.9045C13.3213 10.7082 13.0078 10.8283 13.0078 11.1037C13.0078 11.2091 13.0576 11.3029 13.3945 11.8273C13.8164 12.4806 13.8721 12.5363 14.0713 12.4982C14.127 12.4894 14.1914 12.4572 14.2178 12.4279C14.2412 12.4015 14.4287 12.1203 14.6309 11.8068C14.959 11.3 15 11.2209 15 11.1095C15 10.9396 14.8799 10.8107 14.7217 10.8107C14.5811 10.8107 14.5166 10.8488 14.4141 10.9923L14.3262 11.1125V6.25504V1.39762L14.4141 1.51774C14.5166 1.66129 14.5811 1.69938 14.7217 1.69938C14.8799 1.69938 15 1.57047 15 1.40055C15 1.28922 14.959 1.21012 14.6309 0.703284C14.4287 0.389808 14.2412 0.108558 14.2119 0.0792608C14.1416 0.00601864 13.9512 -0.0115595 13.8545 0.0411749Z" fill="black"/>
<path d="M5.94126 1.74023C5.80649 1.78711 5.9061 1.70801 3.42758 3.7998C1.23911 5.64551 1.28891 5.59863 1.28891 5.90332C1.29184 6.11426 1.36215 6.24902 1.66977 6.60352C1.97153 6.95508 2.08579 7.03125 2.32895 7.03125C2.47251 7.03125 2.63657 6.96973 2.77426 6.86719L2.84165 6.82031V8.45215C2.84165 9.5918 2.85044 10.1191 2.87387 10.1982C2.92075 10.3506 3.06137 10.5146 3.20493 10.5791C3.31919 10.6318 3.46567 10.6348 6.15219 10.6348C8.83872 10.6348 8.9852 10.6318 9.09946 10.5791C9.24301 10.5146 9.38364 10.3506 9.43051 10.1982C9.45395 10.1191 9.46274 9.5918 9.46274 8.45215V6.82031L9.53012 6.86719C9.66782 6.96973 9.83188 7.03125 9.97544 7.03125C10.2186 7.03125 10.3329 6.95508 10.6346 6.60352C10.9422 6.24902 11.0125 6.11426 11.0155 5.90332C11.0155 5.5957 11.0799 5.66016 8.6893 3.64453C7.48227 2.625 6.46274 1.77832 6.4188 1.75781C6.29868 1.70215 6.06137 1.69336 5.94126 1.74023ZM8.25278 4.08984C9.39536 5.05078 10.3446 5.85352 10.3651 5.87402C10.3973 5.90332 10.3709 5.9502 10.2215 6.12598C10.1219 6.24609 10.0252 6.36035 10.0047 6.38086C9.97837 6.41016 9.59165 6.09961 8.12973 4.86328L6.28696 3.31055H6.15219H6.01743L4.17465 4.86328C2.71567 6.09668 2.32602 6.41016 2.29965 6.38086C2.27915 6.36035 2.18247 6.24609 2.07993 6.12598L1.89536 5.90625L1.99497 5.82715C2.05063 5.7832 2.99692 4.9834 4.10141 4.04883C5.2059 3.11426 6.12583 2.34668 6.1434 2.34668C6.16391 2.34375 7.11313 3.12891 8.25278 4.08984ZM7.50864 5.15625L8.84751 6.28418V8.15039V10.0195H8.02719H7.20688V9.36621C7.20688 8.74805 7.20395 8.70703 7.14243 8.58398C7.10434 8.51367 7.02524 8.41406 6.96372 8.36719L6.84946 8.27637H6.15219H5.45493L5.34067 8.36719C5.27915 8.41406 5.20005 8.51367 5.16489 8.58398C5.10044 8.70703 5.09751 8.74805 5.09751 9.36621V10.0195H4.27719H3.45688V8.15039L3.45981 6.28418L4.79868 5.15039C5.53403 4.5293 6.14633 4.02246 6.15512 4.02246C6.16391 4.02539 6.77329 4.53516 7.50864 5.15625ZM6.59165 9.44824V10.0195H6.15219H5.71274V9.44824V8.87695H6.15219H6.59165V9.44824Z" fill="black"/>
<path d="M5.9707 5.33203C5.79199 5.36426 5.55762 5.49316 5.44336 5.62207C5.28223 5.80371 5.20312 6.02051 5.20312 6.27246C5.20312 6.46582 5.21777 6.52441 5.29687 6.68848C5.4668 7.03418 5.75977 7.21582 6.15234 7.21582C6.54199 7.21582 6.83789 7.03418 7.00488 6.69141C7.17773 6.34277 7.11914 5.91504 6.8584 5.61621C6.66797 5.40234 6.28418 5.2793 5.9707 5.33203ZM6.25488 5.94727C6.27539 5.94727 6.33398 5.98828 6.38379 6.03809C6.4541 6.1084 6.47461 6.15234 6.47461 6.24316C6.47461 6.43945 6.39844 6.54199 6.20215 6.60352C6.12891 6.62695 5.92969 6.53906 5.87695 6.45996C5.78906 6.3252 5.80371 6.15234 5.91797 6.03809C6.00586 5.95312 6.09961 5.91504 6.17578 5.93555C6.19922 5.94141 6.23437 5.94727 6.25488 5.94727Z" fill="black"/>
<path d="M8.60742 11.7658C8.50195 11.8215 8.4668 11.8918 8.4668 12.0412C8.4668 12.384 8.95898 12.4455 9.0498 12.1144C9.12305 11.8449 8.85059 11.631 8.60742 11.7658Z" fill="black"/>
<path d="M1.18641 13.0461C0.846562 13.2453 0.122929 13.7258 0.0643354 13.7873C-0.0264849 13.8899 -0.0264849 14.092 0.0672651 14.1887C0.128789 14.2561 1.04285 14.8596 1.23035 14.9563C1.47644 15.0822 1.73719 14.8713 1.66687 14.6047C1.64344 14.5197 1.57898 14.4494 1.43543 14.3498C1.36512 14.303 1.64344 14.3 6.23426 14.3L11.1093 14.2971L10.9804 14.3938C10.8251 14.5139 10.7753 14.6047 10.7929 14.7336C10.8221 14.924 11.0389 15.053 11.2089 14.9768C11.3495 14.9094 12.3807 14.2326 12.4276 14.1711C12.4833 14.1008 12.4979 13.9133 12.4511 13.8283C12.4247 13.7785 11.3641 13.0754 11.2089 13.0022C11.1093 12.9582 10.9481 12.9963 10.8661 13.0842C10.8134 13.1399 10.7958 13.1926 10.7958 13.2922C10.7958 13.4065 10.8104 13.4358 10.9012 13.5149C10.9569 13.5676 11.0302 13.6233 11.0624 13.6438C11.1063 13.6701 10.0282 13.6789 6.24305 13.6789C3.55945 13.6819 1.37684 13.6701 1.39441 13.6584C1.40906 13.6467 1.47059 13.5998 1.52918 13.5559C1.65223 13.4651 1.70203 13.3332 1.66394 13.1985C1.60828 12.9934 1.39148 12.9231 1.18641 13.0461Z" fill="black"/>
</g>
<defs>
<clipPath id="clip0_228_152">
<rect width="15" height="15" fill="white"/>
</clipPath>
</defs>
</svg>
