<svg width="15" height="15" viewBox="0 0 15 15" fill="none" xmlns="http://www.w3.org/2000/svg">
<path d="M10.2413 2.9915L11.366 1.86616C11.6005 1.63171 11.9184 1.5 12.25 1.5C12.5816 1.5 12.8995 1.63171 13.134 1.86616C13.3685 2.10062 13.5002 2.4186 13.5002 2.75016C13.5002 3.08173 13.3685 3.39971 13.134 3.63416L6.05467 10.7135C5.70222 11.0657 5.26758 11.3246 4.79 11.4668L3 12.0002L3.53333 10.2102C3.67552 9.73259 3.93442 9.29795 4.28667 8.9455L10.2413 2.9915ZM10.2413 2.9915L12 4.75016M11 9.3335V12.5002C11 12.898 10.842 13.2795 10.5607 13.5608C10.2794 13.8421 9.89782 14.0002 9.5 14.0002H2.5C2.10218 14.0002 1.72064 13.8421 1.43934 13.5608C1.15804 13.2795 1 12.898 1 12.5002V5.50016C1 5.10234 1.15804 4.72081 1.43934 4.4395C1.72064 4.1582 2.10218 4.00016 2.5 4.00016H5.66667" stroke="#00529E" stroke-width="1.1" stroke-linecap="round" stroke-linejoin="round"/>
</svg>
