<svg width="20" height="21" viewBox="0 0 20 21" fill="none" xmlns="http://www.w3.org/2000/svg">
<path d="M3.31682 7.3525C2.5372 8.27265 1.95666 9.34434 1.61182 10.5C2.68848 14.115 6.03682 16.75 10.0001 16.75C10.8276 16.75 11.6276 16.635 12.386 16.4208M5.19015 5.69C6.61735 4.74822 8.29022 4.2474 10.0001 4.25C13.9635 4.25 17.311 6.885 18.3876 10.4983C17.7976 12.4728 16.531 14.1763 14.8101 15.31M5.19015 5.69L2.50015 3M5.19015 5.69L8.23182 8.73167M14.8101 15.31L17.5001 18M14.8101 15.31L11.7685 12.2683C12.0006 12.0362 12.1848 11.7605 12.3105 11.4572C12.4361 11.1539 12.5008 10.8287 12.5008 10.5004C12.5008 10.1721 12.4361 9.84697 12.3105 9.54363C12.1848 9.24029 12.0006 8.96467 11.7685 8.7325C11.5363 8.50033 11.2607 8.31617 10.9574 8.19052C10.654 8.06487 10.3289 8.0002 10.0006 8.0002C9.67223 8.0002 9.34712 8.06487 9.04378 8.19052C8.74044 8.31617 8.46482 8.50033 8.23265 8.7325M11.7676 12.2675L8.23348 8.73333" stroke="#585A60" stroke-linecap="round" stroke-linejoin="round"/>
</svg>
