<svg width="20" height="21" viewBox="0 0 20 21" fill="none" xmlns="http://www.w3.org/2000/svg">
<path d="M1.69645 10.7683C1.63894 10.5955 1.63894 10.4087 1.69645 10.2358C2.85229 6.75833 6.13312 4.25 9.99979 4.25C13.8648 4.25 17.144 6.75583 18.3023 10.2317C18.3606 10.4042 18.3606 10.5908 18.3023 10.7642C17.1473 14.2417 13.8665 16.75 9.99979 16.75C6.13479 16.75 2.85479 14.2442 1.69645 10.7683Z" stroke="#585A60" stroke-linecap="round" stroke-linejoin="round"/>
<path d="M12.5 10.5C12.5 11.163 12.2366 11.7989 11.7678 12.2678C11.2989 12.7366 10.663 13 10 13C9.33696 13 8.70107 12.7366 8.23223 12.2678C7.76339 11.7989 7.5 11.163 7.5 10.5C7.5 9.83696 7.76339 9.20107 8.23223 8.73223C8.70107 8.26339 9.33696 8 10 8C10.663 8 11.2989 8.26339 11.7678 8.73223C12.2366 9.20107 12.5 9.83696 12.5 10.5Z" stroke="#585A60" stroke-linecap="round" stroke-linejoin="round"/>
</svg>
