<svg width="14" height="16" viewBox="0 0 14 16" fill="none" xmlns="http://www.w3.org/2000/svg">
<path d="M8.82667 5.99986L8.596 11.9999M5.404 11.9999L5.17333 5.99986M11.8187 3.85986C12.0467 3.89453 12.2733 3.93119 12.5 3.97053M11.8187 3.85986L11.1067 13.1152C11.0776 13.492 10.9074 13.844 10.63 14.1007C10.3527 14.3574 9.9886 14.5 9.61067 14.4999H4.38933C4.0114 14.5 3.64735 14.3574 3.36999 14.1007C3.09262 13.844 2.92239 13.492 2.89333 13.1152L2.18133 3.85986M11.8187 3.85986C11.0492 3.74354 10.2758 3.65526 9.5 3.59519M2.18133 3.85986C1.95333 3.89386 1.72667 3.93053 1.5 3.96986M2.18133 3.85986C2.95076 3.74354 3.72416 3.65526 4.5 3.59519M9.5 3.59519V2.98453C9.5 2.19786 8.89333 1.54186 8.10667 1.51719C7.36908 1.49362 6.63092 1.49362 5.89333 1.51719C5.10667 1.54186 4.5 2.19853 4.5 2.98453V3.59519M9.5 3.59519C7.83581 3.46658 6.16419 3.46658 4.5 3.59519" stroke="#9E0000" stroke-width="1.1" stroke-linecap="round" stroke-linejoin="round"/>
</svg>
