<svg width="300" height="163" viewBox="0 0 300 163" fill="none" xmlns="http://www.w3.org/2000/svg">
<g clip-path="url(#clip0_716_68)">
<path d="M65.651 150.888L46.093 126.941V150.888H35.313V97.1422H46.093V121.243L65.651 97.1422H78.664L56.488 123.784L79.28 150.888H65.651ZM111.781 97.1422V150.888H101.001V97.1422H111.781ZM164.781 150.888L152.923 129.944H147.841V150.888H137.061V97.1422H157.235C161.393 97.1422 164.935 97.8865 167.861 99.3752C170.787 100.813 172.969 102.789 174.406 105.304C175.895 107.768 176.639 110.54 176.639 113.62C176.639 117.162 175.613 120.37 173.559 123.245C171.506 126.068 168.452 128.019 164.396 129.097L177.255 150.888H164.781ZM147.841 121.859H156.85C159.776 121.859 161.958 121.166 163.395 119.78C164.833 118.343 165.551 116.366 165.551 113.851C165.551 111.387 164.833 109.488 163.395 108.153C161.958 106.767 159.776 106.074 156.85 106.074H147.841V121.859ZM233.975 140.647H212.569L209.027 150.888H197.708L217.035 97.0652H229.586L248.913 150.888H237.517L233.975 140.647ZM231.049 132.023L223.272 109.539L215.495 132.023H231.049Z" fill="white"/>
<path d="M143.045 69.7208L187 18.665L198 5.88818L209.5 19.0919L228 40.3326L228 30.8882L247 30.8882L247 62.1474L292.5 114.388L268.5 112.888L198.412 31.8578L155.899 80.8007L143.045 69.7208Z" fill="white"/>
</g>
<defs>
<clipPath id="clip0_716_68">
<rect width="300" height="163" fill="white"/>
</clipPath>
</defs>
</svg>
