<svg width="15" height="15" viewBox="0 0 15 15" fill="none" xmlns="http://www.w3.org/2000/svg">
<g clip-path="url(#clip0_229_164)">
<path d="M0.0555511 0.0615234C-0.000112988 0.117188 -0.00597236 0.149414 0.00574639 0.351562C0.0291839 0.755859 0.278207 1.11914 0.659067 1.30664C0.828989 1.38867 0.849496 1.3916 1.35633 1.40039L1.87489 1.41211V2.1123V2.8125H1.46473C1.0868 2.8125 1.04872 2.81836 0.993051 2.87402C0.937387 2.92969 0.931528 2.96191 0.943246 3.16406C0.966684 3.56836 1.21571 3.93164 1.59657 4.11914C1.76063 4.19824 1.79579 4.2041 2.10926 4.2041C2.42274 4.2041 2.45789 4.19824 2.62196 4.11914C3.00282 3.93164 3.25184 3.56836 3.27528 3.16406C3.287 2.96191 3.28114 2.92969 3.22547 2.87402C3.16981 2.81836 3.13172 2.8125 2.75379 2.8125H2.34364V2.10938V1.40625H4.80457H7.26551V2.10938V2.8125H6.85536C6.47743 2.8125 6.43934 2.81836 6.38368 2.87402C6.32801 2.92969 6.32215 2.96191 6.33387 3.16406C6.35731 3.56836 6.60633 3.93164 6.98719 4.11914C7.15125 4.19824 7.18641 4.2041 7.49989 4.2041C7.81336 4.2041 7.84852 4.19824 8.01258 4.11914C8.39344 3.93164 8.64247 3.56836 8.6659 3.16406C8.67762 2.96191 8.67176 2.92969 8.6161 2.87402C8.56043 2.81836 8.52235 2.8125 8.14442 2.8125H7.73426V2.10938V1.40625H10.1952H12.6561V2.10938V2.8125H12.246C11.8681 2.8125 11.83 2.81836 11.7743 2.87402C11.7186 2.92969 11.7128 2.96191 11.7245 3.16406C11.7479 3.56836 11.997 3.93164 12.3778 4.11914C12.5419 4.19824 12.577 4.2041 12.8905 4.2041C13.204 4.2041 13.2391 4.19824 13.4032 4.11914C13.7841 3.93164 14.0331 3.56836 14.0565 3.16406C14.0682 2.96191 14.0624 2.92969 14.0067 2.87402C13.9511 2.81836 13.913 2.8125 13.535 2.8125H13.1249V2.1123V1.41211L13.6464 1.40039C14.1532 1.3916 14.1708 1.38867 14.3407 1.30664C14.7216 1.11914 14.9706 0.755859 14.994 0.351562C15.0057 0.149414 14.9999 0.117188 14.9442 0.0615234L14.8827 0H7.49989H0.117075L0.0555511 0.0615234ZM14.4315 0.550781C14.37 0.670898 14.1766 0.834961 14.0448 0.881836C13.8749 0.943359 1.12489 0.943359 0.954965 0.881836C0.823129 0.834961 0.62977 0.670898 0.568246 0.550781L0.524301 0.46875H7.49989H14.4755L14.4315 0.550781ZM2.71278 3.36035C2.60145 3.57422 2.35829 3.7207 2.10926 3.7207C1.86024 3.7207 1.61707 3.57422 1.50575 3.36035L1.4618 3.28125H2.10926H2.75672L2.71278 3.36035ZM8.1034 3.36035C7.99207 3.57422 7.74891 3.7207 7.49989 3.7207C7.25086 3.7207 7.0077 3.57422 6.89637 3.36035L6.85243 3.28125H7.49989H8.14735L8.1034 3.36035ZM13.494 3.36035C13.3827 3.57422 13.1395 3.7207 12.8905 3.7207C12.6415 3.7207 12.3983 3.57422 12.287 3.36035L12.2431 3.28125H12.8905H13.538L13.494 3.36035Z" fill="black"/>
<path d="M3.52734 5.68066C3.2373 5.8125 3.04688 6.09375 3.04688 6.39258V6.5625H2.16797C1.32715 6.5625 1.28613 6.56543 1.23047 6.62109C1.15137 6.7002 1.15137 6.89355 1.23047 6.97266C1.28027 7.02246 1.32715 7.03125 1.52344 7.03125H1.75781V7.28906C1.75781 7.67871 1.89551 8.06543 2.12695 8.32031L2.23242 8.4375H1.27148C0.360352 8.4375 0.301758 8.44043 0.210938 8.49609C0.158203 8.52832 0.0908203 8.5957 0.0585938 8.64844C0 8.74219 0 8.80371 0 11.7188C0 14.6338 0 14.6953 0.0585938 14.7891C0.0908203 14.8418 0.158203 14.9092 0.210938 14.9414C0.307617 15 0.375 15 7.5 15C14.625 15 14.6924 15 14.7891 14.9414C14.8418 14.9092 14.9092 14.8418 14.9414 14.7891C15 14.6953 15 14.6338 15 11.7188C15 8.80371 15 8.74219 14.9414 8.64844C14.8271 8.46387 14.7451 8.4375 14.2617 8.4375H13.8281V7.51465C13.8281 6.65332 13.8252 6.58301 13.7666 6.43066C13.541 5.82422 12.6855 5.65723 12.2168 6.12305C12.0469 6.2959 11.9531 6.51855 11.9531 6.75293C11.9531 6.95508 12.0176 7.03125 12.1875 7.03125C12.3369 7.03125 12.4102 6.95801 12.4365 6.78809C12.5068 6.31934 13.0488 6.19336 13.2832 6.5918C13.3418 6.68848 13.3447 6.75 13.3535 7.56445L13.3623 8.4375H9.43359H5.50195L5.60742 8.32031C5.83887 8.06543 5.97656 7.67871 5.97656 7.28906V7.03125H6.21094C6.49219 7.03125 6.5625 6.98438 6.5625 6.79688C6.5625 6.71777 6.54199 6.65918 6.50391 6.62109C6.44824 6.56543 6.40723 6.5625 5.56641 6.5625H4.6875V6.39258C4.6875 6.09375 4.49707 5.8125 4.20703 5.68066C4.04297 5.60742 3.69141 5.60742 3.52734 5.68066ZM4.06934 6.19922C4.14844 6.26367 4.21875 6.41895 4.21875 6.52441C4.21875 6.55371 4.12793 6.5625 3.86719 6.5625C3.4834 6.5625 3.49512 6.56836 3.54492 6.38086C3.58594 6.23145 3.72363 6.12305 3.86719 6.12305C3.94629 6.12305 4.00781 6.14648 4.06934 6.19922ZM5.50781 7.11035C5.50488 7.30078 5.44336 7.61133 5.37598 7.75488C5.33789 7.84277 5.23242 7.9834 5.14453 8.07422C4.85742 8.3584 4.58789 8.4375 3.86719 8.4375C3.14648 8.4375 2.87695 8.3584 2.58984 8.07422C2.50195 7.9834 2.39648 7.84277 2.3584 7.75488C2.29102 7.61133 2.22949 7.30078 2.22656 7.11035V7.03125H3.86719H5.50781V7.11035ZM7.26562 9.84375V10.7812H3.86719H0.46875V9.84375V8.90625H3.86719H7.26562V9.84375ZM14.5312 11.7188V14.5312H11.1328H7.73438V11.7188V8.90625H11.1328H14.5312V11.7188ZM2.34375 11.4609C2.34375 11.71 2.40234 11.8623 2.55176 12.0029C2.74512 12.1846 2.76562 12.1875 3.87305 12.1875C4.99219 12.1875 5.0127 12.1846 5.20605 11.9795C5.34082 11.8359 5.39062 11.6953 5.39062 11.4551V11.25H6.32812H7.26562V12.8906V14.5312H3.86719H0.46875V12.8906V11.25H1.40625H2.34375V11.4609ZM4.92188 11.3496C4.92188 11.5195 4.86328 11.6338 4.75781 11.6777C4.63184 11.7305 3.1377 11.7363 2.98828 11.6865C2.87988 11.6484 2.8125 11.5195 2.8125 11.3525V11.25H3.86719H4.92188V11.3496Z" fill="black"/>
<path d="M1.34766 9.66797C1.30957 9.70605 1.28906 9.76465 1.28906 9.84375C1.28906 9.99902 1.36816 10.0781 1.52344 10.0781C1.67871 10.0781 1.75781 9.99902 1.75781 9.84375C1.75781 9.68848 1.67871 9.60938 1.52344 9.60938C1.44434 9.60938 1.38574 9.62988 1.34766 9.66797Z" fill="black"/>
<path d="M2.51953 9.66797C2.48145 9.70605 2.46094 9.76465 2.46094 9.84375C2.46094 9.99902 2.54004 10.0781 2.69531 10.0781C2.77441 10.0781 2.83301 10.0576 2.87109 10.0195C2.90918 9.98145 2.92969 9.92285 2.92969 9.84375C2.92969 9.68848 2.85059 9.60938 2.69531 9.60938C2.61621 9.60938 2.55762 9.62988 2.51953 9.66797Z" fill="black"/>
<path d="M3.69141 9.66797C3.65332 9.70605 3.63281 9.76465 3.63281 9.84375C3.63281 9.99902 3.71191 10.0781 3.86719 10.0781C3.94629 10.0781 4.00488 10.0576 4.04297 10.0195C4.08105 9.98145 4.10156 9.92285 4.10156 9.84375C4.10156 9.76465 4.08105 9.70605 4.04297 9.66797C4.00488 9.62988 3.94629 9.60938 3.86719 9.60938C3.78809 9.60938 3.72949 9.62988 3.69141 9.66797Z" fill="black"/>
<path d="M4.86328 9.66797C4.8252 9.70605 4.80469 9.76465 4.80469 9.84375C4.80469 9.92285 4.8252 9.98145 4.86328 10.0195C4.90137 10.0576 4.95996 10.0781 5.03906 10.0781C5.11816 10.0781 5.17676 10.0576 5.21484 10.0195C5.25293 9.98145 5.27344 9.92285 5.27344 9.84375C5.27344 9.76465 5.25293 9.70605 5.21484 9.66797C5.17676 9.62988 5.11816 9.60938 5.03906 9.60938C4.95996 9.60938 4.90137 9.62988 4.86328 9.66797Z" fill="black"/>
<path d="M6.03516 9.66797C5.99707 9.70605 5.97656 9.76465 5.97656 9.84375C5.97656 9.92285 5.99707 9.98145 6.03516 10.0195C6.07324 10.0576 6.13184 10.0781 6.21094 10.0781C6.29004 10.0781 6.34863 10.0576 6.38672 10.0195C6.4248 9.98145 6.44531 9.92285 6.44531 9.84375C6.44531 9.76465 6.4248 9.70605 6.38672 9.66797C6.34863 9.62988 6.29004 9.60938 6.21094 9.60938C6.13184 9.60938 6.07324 9.62988 6.03516 9.66797Z" fill="black"/>
<path d="M8.49609 9.66797C8.4375 9.72656 8.4375 9.76465 8.4375 11.7188C8.4375 13.6729 8.4375 13.7109 8.49609 13.7695C8.55469 13.8281 8.59277 13.8281 11.1328 13.8281C13.6729 13.8281 13.7109 13.8281 13.7695 13.7695C13.8281 13.7109 13.8281 13.6729 13.8281 11.7188C13.8281 9.76465 13.8281 9.72656 13.7695 9.66797C13.7109 9.60938 13.6729 9.60938 11.1328 9.60938C8.59277 9.60938 8.55469 9.60938 8.49609 9.66797ZM10.8984 11.7188V13.3594H9.90234H8.90625V11.7188V10.0781H9.90234H10.8984V11.7188ZM13.3594 11.7188V13.3594H12.3633H11.3672V11.7188V10.0781H12.3633H13.3594V11.7188Z" fill="black"/>
</g>
<defs>
<clipPath id="clip0_229_164">
<rect width="15" height="15" fill="white"/>
</clipPath>
</defs>
</svg>
