<svg width="25" height="25" viewBox="0 0 25 25" fill="none" xmlns="http://www.w3.org/2000/svg">
<path d="M18.8086 4.47755C18.4814 4.63868 18.4326 4.75587 18.0957 6.29884C17.7734 7.7588 17.7637 7.90528 17.9443 7.97852C17.9883 7.99317 18.2764 8.00782 18.584 8.00782H19.1406V8.98438V9.96094H18.2617C17.4463 9.96094 17.3779 9.96583 17.2852 10.0586C17.2314 10.1123 17.1875 10.2002 17.1875 10.2539C17.1875 10.3076 17.2314 10.3955 17.2852 10.4492C17.3828 10.5469 17.4463 10.5469 20.4834 10.5469H23.584V11.6211V12.6953H21.7139C20.3223 12.6953 19.8291 12.71 19.7852 12.7539C19.707 12.832 19.707 13.0957 19.7852 13.1738C19.8291 13.2178 20.3223 13.2324 21.7139 13.2324H23.584V14.3066V15.3809H21.9482H20.3125L20.2295 15.5078C20.1562 15.625 20.1562 15.6494 20.2197 15.7666C20.293 15.8936 20.293 15.8936 21.0449 15.918C21.8457 15.9473 22.0166 15.9863 22.3389 16.2305C22.5684 16.4063 22.7539 16.7871 22.7881 17.1631C22.8271 17.6074 22.8857 17.6416 23.54 17.6172C23.96 17.6074 24.043 17.5879 24.1016 17.5098C24.1602 17.4268 24.1699 16.8408 24.1699 13.7842C24.1699 10.2197 24.1699 10.1563 24.0723 10.0586C23.9795 9.96583 23.9111 9.96094 22.3877 9.96094H20.8008V8.98438V8.00782H21.377C21.9971 8.00782 22.168 7.95411 22.168 7.74903C22.168 7.62696 21.6016 5.03907 21.5381 4.87794C21.4893 4.7461 21.2744 4.53126 21.1084 4.44825C21.04 4.41407 20.6445 4.39454 19.9854 4.39454C19.1455 4.39454 18.9404 4.40919 18.8086 4.47755ZM20.9424 5.02442C20.9961 5.07813 21.0645 5.24415 21.0938 5.40528C21.1279 5.56153 21.2402 6.06934 21.3428 6.53809C21.4453 7.00684 21.5332 7.39259 21.5332 7.40235C21.5332 7.41212 20.8398 7.42188 19.9951 7.42188C18.7354 7.42188 18.457 7.41212 18.457 7.35352C18.457 7.31934 18.5645 6.80177 18.6963 6.20606C18.8477 5.5127 18.9648 5.0879 19.0186 5.0293C19.1016 4.94141 19.1748 4.93165 19.9805 4.93165C20.7715 4.93165 20.8594 4.94141 20.9424 5.02442ZM20.2637 8.98438V9.96094H19.9951H19.7266V8.98438V8.00782H19.9951H20.2637V8.98438ZM23.584 16.4795V17.041H23.4619C23.374 17.041 23.3398 17.0166 23.3398 16.9434C23.3398 16.7627 23.1494 16.2891 22.998 16.1035L22.8467 15.918H23.2178H23.584V16.4795Z" fill="black"/>
<path d="M5.20508 6.52344C5.03418 6.57715 4.8877 6.67969 4.6875 6.875C4.29199 7.27051 4.24805 7.43164 4.24805 8.46192V9.28711L4.07715 9.48731C3.71094 9.91211 3.59375 10.6543 3.82812 11.0645L3.94043 11.2646L3.41309 11.6113C2.74414 12.0557 1.91895 12.7295 1.51855 13.1592C1.17676 13.5254 0.957031 13.9355 0.878906 14.3506C0.849609 14.5117 0.830078 15.752 0.830078 17.5293C0.830078 20.293 0.834961 20.4492 0.917969 20.5225C0.991211 20.5908 1.12305 20.6055 1.6748 20.6055C2.10449 20.6055 2.34863 20.5859 2.37305 20.5518C2.3877 20.5225 2.44629 20.332 2.49512 20.127C2.70996 19.2725 3.1543 18.6426 3.75 18.3496L4.07715 18.1885H10.2051H16.333L16.6602 18.3496C17.2754 18.6523 17.7148 19.2725 17.915 20.1172C17.9688 20.3418 18.042 20.542 18.0762 20.5664C18.1104 20.5859 18.4277 20.6055 18.7842 20.6055C19.3018 20.6055 19.4434 20.5908 19.502 20.5273C19.5703 20.459 19.5801 20.1172 19.5801 17.5098C19.5801 15.7959 19.5605 14.458 19.5312 14.3115C19.4531 13.8916 19.248 13.5352 18.8525 13.1201C18.3984 12.6465 17.627 12.0166 16.958 11.5869L16.4648 11.2646L16.5527 11.1377C16.8506 10.7178 16.7432 9.95117 16.3135 9.45801L16.1719 9.29688L16.1523 8.37402C16.1377 7.53418 16.1279 7.42676 16.0303 7.25098C15.8887 6.98731 15.6055 6.71387 15.3369 6.58203L15.1123 6.46973L10.2783 6.45996C6.0791 6.4502 5.41504 6.45996 5.20508 6.52344ZM15.1123 7.10938C15.2197 7.16309 15.376 7.30469 15.4541 7.41699C15.5957 7.62207 15.6006 7.6416 15.6152 8.30078L15.6299 8.97461L15.3223 8.87207C15.0293 8.76953 14.9268 8.76465 13.1592 8.76465H11.3037L11.0205 8.89649C10.8643 8.96973 10.625 9.14551 10.4688 9.30176L10.1953 9.57031L9.98047 9.32617C9.83887 9.17481 9.63867 9.02832 9.43359 8.92578L9.10645 8.76465H7.25098C5.4834 8.76465 5.38086 8.76953 5.08789 8.87207L4.77539 8.97461L4.79492 8.33496C4.80957 7.61719 4.87793 7.40723 5.1416 7.2168C5.47363 6.97754 5.3418 6.98731 10.2783 6.99707C14.8779 7.00684 14.917 7.00684 15.1123 7.10938ZM8.96973 9.35059C9.52148 9.51172 9.91211 10.0537 9.91211 10.6543V10.9863H7.22168H4.53125L4.38965 10.8447C4.0332 10.4834 4.42383 9.72656 5.09277 9.47754C5.54688 9.31152 5.7959 9.28711 7.30469 9.28223C8.43262 9.27734 8.77441 9.29199 8.96973 9.35059ZM15.0635 9.38477C15.7275 9.58496 16.0645 9.89746 16.1426 10.3955C16.1816 10.6445 16.0986 10.8545 15.9375 10.9326C15.8496 10.9717 15.0293 10.9863 13.1592 10.9863H10.498V10.7031C10.498 10.2783 10.6201 9.98047 10.9131 9.68262C11.3135 9.28711 11.3623 9.27734 13.2324 9.29688C14.4678 9.30664 14.873 9.32617 15.0635 9.38477ZM16.2744 11.8262C17.4121 12.5195 18.6084 13.5645 18.8525 14.0869C18.9795 14.3506 18.9941 14.4287 18.9941 14.9023V15.4297H10.2051H1.41602V14.9414C1.41602 14.1846 1.49902 14.0137 2.16797 13.3545C2.71973 12.8076 3.30078 12.3584 4.11133 11.8506L4.55566 11.5723H10.2051H15.8545L16.2744 11.8262ZM18.9941 16.8213V17.627H10.2051H1.41602V16.8213V16.0156H10.2051H18.9941V16.8213ZM2.73438 18.3936C2.44141 18.7256 2.21191 19.1406 2.05078 19.624L1.90918 20.0439L1.66016 20.0586L1.41602 20.0732V19.1211V18.1641H2.17773H2.93945L2.73438 18.3936ZM18.9941 19.1211V20.0732L18.7402 20.0586L18.4912 20.0439L18.4082 19.7314C18.2861 19.292 18.0029 18.7549 17.7148 18.4375L17.4707 18.1641H18.2324H18.9941V19.1211Z" fill="black"/>
<path d="M20.376 11.4062C20.3028 11.5234 20.3028 11.5479 20.3663 11.665C20.42 11.7627 20.4737 11.792 20.6055 11.792C20.7374 11.792 20.7911 11.7627 20.8448 11.665C20.9083 11.5479 20.9083 11.5234 20.835 11.4062C20.7764 11.3184 20.7081 11.2793 20.6055 11.2793C20.503 11.2793 20.4346 11.3184 20.376 11.4062Z" fill="black"/>
<path d="M20.3906 14.1893C20.293 14.2869 20.293 14.3992 20.3906 14.5408C20.5371 14.7557 20.8984 14.6189 20.8984 14.3455C20.8984 14.2234 20.7617 14.1111 20.6055 14.1111C20.5273 14.1111 20.4297 14.1453 20.3906 14.1893Z" fill="black"/>
</svg>
