<svg width="12" height="18" viewBox="0 0 12 18" fill="none" xmlns="http://www.w3.org/2000/svg">
<path d="M10.166 17.0996C9.92254 17.0995 9.6865 17.0157 9.51074 16.8623L1.17871 9.58984C1.09146 9.51378 1.02176 9.42257 0.973633 9.32129C0.925482 9.21991 0.900391 9.11075 0.900391 9C0.900391 8.88925 0.925482 8.78009 0.973633 8.67871C1.02176 8.57743 1.09146 8.48622 1.17871 8.41016L9.51074 1.1377C9.59793 1.0616 9.70123 1.00152 9.81348 0.960938C9.92554 0.920467 10.0454 0.900423 10.166 0.900391C10.2869 0.900391 10.4073 0.920357 10.5195 0.960938C10.6317 1.00149 10.7342 1.06169 10.8213 1.1377C10.9085 1.21381 10.9793 1.30494 11.0273 1.40625C11.0754 1.50755 11.0996 1.61689 11.0996 1.72754C11.0996 1.83816 11.0754 1.94754 11.0273 2.04883C10.9793 2.15014 10.9085 2.24127 10.8213 2.31738L3.16504 9L10.8213 15.6826C10.9975 15.8364 11.0996 16.0482 11.0996 16.2725C11.0996 16.4967 10.9975 16.7085 10.8213 16.8623C10.6455 17.0156 10.4095 17.0996 10.166 17.0996Z" fill="#8E8E8E" stroke="#8E8E8E" stroke-width="0.2"/>
</svg>
