<svg width="12" height="18" viewBox="0 0 12 18" fill="none" xmlns="http://www.w3.org/2000/svg">
<path d="M1.83398 0.900391C2.07746 0.900455 2.3135 0.984301 2.48926 1.1377L10.8213 8.41016C10.9085 8.48622 10.9782 8.57743 11.0264 8.67871C11.0745 8.78009 11.0996 8.88925 11.0996 9C11.0996 9.11075 11.0745 9.21991 11.0264 9.32129C10.9782 9.42257 10.9085 9.51378 10.8213 9.58984L2.48926 16.8623C2.40207 16.9384 2.29877 16.9985 2.18652 17.0391C2.07446 17.0795 1.95464 17.0996 1.83398 17.0996C1.71312 17.0996 1.59272 17.0796 1.48047 17.0391C1.36832 16.9985 1.26584 16.9383 1.17871 16.8623C1.0915 16.7862 1.02074 16.6951 0.972656 16.5938C0.924604 16.4925 0.900406 16.3831 0.900391 16.2725C0.900391 16.1618 0.92464 16.0525 0.972656 15.9512C1.02074 15.8499 1.0915 15.7587 1.17871 15.6826L8.83496 9L1.17871 2.31738C1.00246 2.16355 0.900391 1.95177 0.900391 1.72754C0.900421 1.50334 1.00248 1.2915 1.17871 1.1377C1.35451 0.984353 1.59051 0.900391 1.83398 0.900391Z" fill="#8E8E8E" stroke="#8E8E8E" stroke-width="0.2"/>
</svg>
