<svg width="22" height="20" viewBox="0 0 22 20" fill="none" xmlns="http://www.w3.org/2000/svg">
<path d="M19.25 6.511C20.134 6.795 20.75 7.639 20.75 8.608V12.894C20.75 14.03 19.903 14.994 18.77 15.087C18.43 15.114 18.09 15.139 17.75 15.159V18.25L14.75 15.25C13.396 15.25 12.056 15.195 10.73 15.087C10.4413 15.0637 10.1605 14.9813 9.905 14.845M19.25 6.511C19.0955 6.46127 18.9358 6.42939 18.774 6.416C16.0959 6.19368 13.4041 6.19368 10.726 6.416C9.595 6.51 8.75 7.473 8.75 8.608V12.894C8.75 13.731 9.21 14.474 9.905 14.845M19.25 6.511V4.637C19.25 3.016 18.098 1.611 16.49 1.402C14.4208 1.13379 12.3365 0.999513 10.25 1C8.135 1 6.052 1.137 4.01 1.402C2.402 1.611 1.25 3.016 1.25 4.637V10.863C1.25 12.484 2.402 13.889 4.01 14.098C4.587 14.173 5.167 14.238 5.75 14.292V19L9.905 14.845" stroke="#9D09D1" stroke-width="1.2" stroke-linecap="round" stroke-linejoin="round"/>
</svg>
