<svg width="18" height="18" viewBox="0 0 18 18" fill="none" xmlns="http://www.w3.org/2000/svg">
<path d="M16.7143 0H1.28571C0.944826 0.000340378 0.617997 0.135908 0.376953 0.376953C0.135908 0.617997 0.000340378 0.944826 0 1.28571V16.7143C0.000391329 17.0552 0.135976 17.382 0.377009 17.623C0.618043 17.864 0.944842 17.9996 1.28571 18H16.7143C17.0551 17.9995 17.3819 17.8639 17.6229 17.6229C17.8639 17.3819 17.9995 17.0551 18 16.7143V1.28571C17.9996 0.944842 17.864 0.618043 17.623 0.377009C17.382 0.135976 17.0552 0.000391329 16.7143 0ZM16.7143 5.78571H7.71429V1.28571H16.7143V5.78571ZM6.42857 1.28571V5.78571H1.28571V1.28571H6.42857ZM1.28571 16.7143V7.07143H16.7147L16.7156 16.7143H1.28571Z" fill="#9D09D1"/>
<path d="M15.4287 14.7857V12.8571C15.4287 12.5021 15.1408 12.2143 14.7858 12.2143C14.4308 12.2143 14.1429 12.5021 14.1429 12.8571V14.7857C14.1429 15.1408 14.4308 15.4286 14.7858 15.4286C15.1408 15.4286 15.4287 15.1408 15.4287 14.7857Z" fill="#9D09D1"/>
<path d="M12.8571 14.7857V9.64286C12.8571 9.28782 12.5693 9 12.2143 9C11.8592 9 11.5714 9.28782 11.5714 9.64286V14.7857C11.5714 15.1408 11.8592 15.4286 12.2143 15.4286C12.5693 15.4286 12.8571 15.1408 12.8571 14.7857Z" fill="#9D09D1"/>
<path d="M5.7857 15.4286C4.93352 15.4276 4.11654 15.0886 3.51396 14.486C2.95873 13.9308 2.62731 13.1935 2.57787 12.4144C2.57087 12.3041 2.6611 12.2143 2.77165 12.2143H3.65713C3.76758 12.2143 3.85605 12.3041 3.86749 12.4139C3.89984 12.7248 4.0074 13.0242 4.18215 13.2857C4.39406 13.6029 4.69526 13.8501 5.04766 13.9961C5.40007 14.142 5.78784 14.1802 6.16194 14.1058C6.53605 14.0314 6.87969 13.8477 7.1494 13.578C7.41912 13.3083 7.6028 12.9646 7.67721 12.5905C7.75163 12.2164 7.71343 11.8287 7.56746 11.4763C7.4215 11.1239 7.17431 10.8227 6.85715 10.6107C6.59563 10.436 6.29621 10.3284 5.98535 10.2961C5.87548 10.2846 5.7857 10.1962 5.7857 10.0857V9.2C5.7857 9.08954 5.87535 8.99935 5.98559 9.00622C6.76513 9.05476 7.50303 9.38594 8.05854 9.94144C8.66134 10.5442 8.99998 11.3618 8.99998 12.2143C8.99998 13.0668 8.66134 13.8843 8.05854 14.4871C7.45575 15.0899 6.63818 15.4286 5.7857 15.4286Z" fill="#9D09D1"/>
</svg>
