<svg width="19" height="20" viewBox="0 0 19 20" fill="none" xmlns="http://www.w3.org/2000/svg">
<path d="M12.169 15.082C14.0322 14.8614 15.8629 14.4217 17.623 13.772C16.1324 12.1208 15.3087 9.9745 15.312 7.75V7C15.312 5.4087 14.6799 3.88258 13.5546 2.75736C12.4294 1.63214 10.9033 1 9.312 1C7.7207 1 6.19458 1.63214 5.06936 2.75736C3.94414 3.88258 3.312 5.4087 3.312 7V7.75C3.31502 9.97463 2.49099 12.121 1 13.772C2.733 14.412 4.56 14.857 6.455 15.082M12.169 15.082C10.271 15.3071 8.35301 15.3071 6.455 15.082M12.169 15.082C12.3131 15.5319 12.3489 16.0094 12.2736 16.4757C12.1982 16.942 12.0138 17.384 11.7354 17.7656C11.4569 18.1472 11.0923 18.4576 10.6712 18.6716C10.2501 18.8856 9.78438 18.9972 9.312 18.9972C8.83962 18.9972 8.37392 18.8856 7.95281 18.6716C7.53169 18.4576 7.16707 18.1472 6.88862 17.7656C6.61017 17.384 6.42576 16.942 6.35041 16.4757C6.27506 16.0094 6.3109 15.5319 6.455 15.082" stroke="white" stroke-width="1.2" stroke-linecap="round" stroke-linejoin="round"/>
</svg>
