<svg width="157" height="149" viewBox="0 0 157 149" fill="none" xmlns="http://www.w3.org/2000/svg">
<path d="M121 99L105 80V99H121Z" fill="#B7AEBA"/>
<path d="M29 80L13 99H29V80Z" fill="#B7AEBA"/>
<path d="M121 99H105H99C95.6863 99 93 101.686 93 105V106C93 109.314 90.3137 112 87 112H47C43.6863 112 41 109.314 41 106V105C41 101.686 38.3137 99 35 99H29H13V127.507V133C13 136.314 15.6863 139 19 139H115C118.314 139 121 136.314 121 133V127.507V99Z" fill="#E5DCE6"/>
<path d="M105 36C105 32.6863 102.314 30 99 30H35C31.6863 30 29 32.6863 29 36V80V99H35C38.3137 99 41 101.686 41 105V106C41 109.314 43.6863 112 47 112H87C90.3137 112 93 109.314 93 106V105C93 101.686 95.6863 99 99 99H105V80V36Z" fill="#F7F5F7"/>
<path d="M41 43C41 41.8954 41.8954 41 43 41H91C92.1046 41 93 41.8954 93 43V66C93 67.1046 92.1046 68 91 68H43C41.8954 68 41 67.1046 41 66V43Z" fill="#E4DCE6"/>
<path d="M41 79C41 77.8954 41.8954 77 43 77H91C92.1046 77 93 77.8954 93 79C93 80.1046 92.1046 81 91 81H43C41.8954 81 41 80.1046 41 79Z" fill="#E4DCE6"/>
<path d="M41 89C41 87.8954 41.8954 87 43 87H91C92.1046 87 93 87.8954 93 89C93 90.1046 92.1046 91 91 91H43C41.8954 91 41 90.1046 41 89Z" fill="#E4DCE6"/>
<path d="M121 133C121 136.314 118.314 139 115 139H19C15.6863 139 13 136.314 13 133V127.507C4.82821 129.745 0 132.509 0 135.5C0 142.956 29.9969 149 67 149C104.003 149 134 142.956 134 135.5C134 132.509 129.172 129.745 121 127.507V133Z" fill="#B7AEBA"/>
<path d="M157 17.5C157 27.165 146.926 35 134.5 35C130.298 35 126.365 34.1042 123 32.5447C120.225 31.2587 117.836 29.5215 116 27.4632C113.478 24.6356 112 21.202 112 17.5C112 7.83502 122.074 0 134.5 0C146.926 0 157 7.83502 157 17.5Z" fill="#E5DCE6"/>
<path d="M116 27.4632L114.223 34.1609C114.124 34.5334 114.466 34.8729 114.838 34.7715L123 32.5447C120.225 31.2587 117.836 29.5215 116 27.4632Z" fill="#E5DCE6"/>
<path d="M138 18C138 19.6569 136.657 21 135 21C133.343 21 132 19.6569 132 18C132 16.3431 133.343 15 135 15C136.657 15 138 16.3431 138 18Z" fill="white"/>
<path d="M129 18C129 19.6569 127.657 21 126 21C124.343 21 123 19.6569 123 18C123 16.3431 124.343 15 126 15C127.657 15 129 16.3431 129 18Z" fill="white"/>
<path d="M147 18C147 19.6569 145.657 21 144 21C142.343 21 141 19.6569 141 18C141 16.3431 142.343 15 144 15C145.657 15 147 16.3431 147 18Z" fill="white"/>
</svg>
