<svg width="17" height="21" viewBox="0 0 17 21" fill="none" xmlns="http://www.w3.org/2000/svg">
<path fill-rule="evenodd" clip-rule="evenodd" d="M8.5 19.75C8.5 19.75 16 15.642 16 8.5C16 6.51088 15.2098 4.60322 13.8033 3.1967C12.3968 1.79018 10.4891 1 8.5 1C6.51088 1 4.60322 1.79018 3.1967 3.1967C1.79018 4.60322 1 6.51088 1 8.5C1 15.642 8.5 19.75 8.5 19.75ZM10.6213 10.6213C11.1839 10.0587 11.5 9.29565 11.5 8.5C11.5 7.70435 11.1839 6.94129 10.6213 6.37868C10.0587 5.81607 9.29565 5.5 8.5 5.5C7.70435 5.5 6.94129 5.81607 6.37868 6.37868C5.81607 6.94129 5.5 7.70435 5.5 8.5C5.5 9.29565 5.81607 10.0587 6.37868 10.6213C6.94129 11.1839 7.70435 11.5 8.5 11.5C9.29565 11.5 10.0587 11.1839 10.6213 10.6213Z" stroke="#666666" stroke-width="1.5" stroke-linecap="round" stroke-linejoin="round"/>
</svg>
